<svg width="532" height="276" viewBox="0 0 532 276" fill="none" xmlns="http://www.w3.org/2000/svg">
<g clip-path="url(#clip0_35_7)">
<rect width="532" height="276" fill="white"/>
<g clip-path="url(#clip1_35_7)">
<g opacity="0.08">
<path d="M45.5094 276.007L101.329 42.9109L73.888 276.007H45.5094Z" fill="url(#paint0_linear_35_7)"/>
</g>
<g opacity="0.08">
<path d="M73.4042 32L73.413 32.0056L73.3868 32.1806L73.2763 32.0932L73.3868 32.1919L73.378 32.2491L73.2589 32.1448L73.3228 32.3636L73.1425 32.1639L73.3402 32.4422L73.2996 32.7024L73 32.211L73.2589 32.7059L73.0873 32.6857L73.285 32.7687L73.0524 32.8585L73.2763 32.8428L73.0436 32.9315L73.2589 32.9426L73.1339 33.1581L73.2327 33.1378L73.0873 33.5228L73.1919 33.377L73.128 33.5407L73.1833 33.4218L73.1599 33.5486L73.3868 33.1053L73.4595 33.0919L73.5235 33.2176L73.1977 33.5744L73.5409 33.2445L73.6224 33.4072L73.3054 33.5352L73.6282 33.4241L73.6486 33.5015L73.3722 33.6596L73.6544 33.5172L73.6834 33.6238L73.4857 33.7797L73.6834 33.6395L143.268 276.187H163.621L73.9888 34.1119L199.536 276.187H221.975L73.8173 33.5475L74.0789 33.3634L263.313 276.187H290.084L74.1603 33.3051L74.4337 33.148L340.821 276.187H375L74.5326 33.1132L74.8233 33.0133L74.9514 33.0189" fill="url(#paint1_linear_35_7)"/>
</g>
<g opacity="0.08">
<path d="M86.2276 42.9174L86.7448 42.912L0 276.008H28.8173L86.9085 42.9109L87.4127 42.9314L76.7295 276.008H104.84L87.5636 42.9539L88.0117 43.0237L88.1454 43.0902L152.903 276.008H181.85L88.3824 43.2361L89.1107 43.7405L232.675 276.008H264.35L89.714 44.1527L321.23 276.008H357.908L91.7437 45.5532L425.91 276.008H471L90.0974 44.129L89.9121 43.9659" fill="url(#paint2_linear_35_7)"/>
</g>
</g>
<path opacity="0.5" d="M38 230C38 232.726 40.2745 235 43 235C45.7255 235 48 232.726 48 230C48 227.274 45.7255 225 43 225C40.2745 225 38 227.274 38 230Z" fill="#6AFFFF"/>
<path opacity="0.5" d="M178 215C178 216.635 179.365 218 181 218C182.635 218 184 216.635 184 215C184 213.365 182.635 212 181 212C179.365 212 178 213.365 178 215Z" fill="#6AFF9D"/>
<path opacity="0.5" d="M145 261C145 263.726 147.274 266 150 266C152.725 266 155 263.726 155 261C155 258.274 152.725 256 150 256C147.274 256 145 258.274 145 261Z" fill="#FBA6FF"/>
<path opacity="0.5" d="M254 232.5C254 233.863 255.137 235 256.5 235C257.863 235 259 233.863 259 232.5C259 231.137 257.863 230 256.5 230C255.137 230 254 231.137 254 232.5Z" fill="#FCCCFF"/>
<path opacity="0.5" d="M296 259C296 261.726 298.274 264 301 264C303.725 264 306 261.726 306 259C306 256.274 303.725 254 301 254C298.274 254 296 256.274 296 259Z" fill="#6AFFFF"/>
<g opacity="0.4">
<path d="M13.5373 266.146C13.4123 266.146 13.2757 266.15 13.1199 266.159C12.9515 266.168 12.7824 266.193 12.6189 266.216L12.5863 266.221L12.4922 266.234L12.3919 266.248L12.4278 266.246C12.2956 266.261 12.1642 266.281 12.0331 266.301L11.8581 266.327L11.8411 266.329C11.796 266.335 11.762 266.34 11.7287 266.345C11.5905 266.363 11.4522 266.377 11.3141 266.392C11.1647 266.407 11.0153 266.423 10.8667 266.443L10.8416 266.447L10.8159 266.45C10.7954 266.449 10.7738 266.448 10.7531 266.448C10.6197 266.448 10.4832 266.48 10.3512 266.511C10.3042 266.522 10.258 266.533 10.2125 266.542C10.1861 266.548 10.1596 266.553 10.133 266.558C10.0771 266.568 10.0212 266.579 9.96639 266.594C9.93399 266.604 9.90264 266.616 9.87148 266.628H9.87024C9.82794 266.628 9.79303 266.634 9.76248 266.646L9.62809 266.696C9.5993 266.705 9.57236 266.716 9.54652 266.728C9.47445 266.759 9.41745 266.789 9.36717 266.822C9.2577 266.894 9.17265 266.982 9.09918 267.102C9.06911 267.15 9.0486 267.204 9.0287 267.257C8.98503 267.373 8.99974 267.494 9.01712 267.599C9.03671 267.712 9.08901 267.83 9.13523 267.934C9.16684 268.001 9.20443 268.05 9.25378 268.089C9.30202 268.261 9.35009 268.433 9.39817 268.605L9.50892 269.001C9.56703 269.208 9.62575 269.414 9.68888 269.619C9.75936 269.847 9.83626 270.052 9.92377 270.248C10.0828 270.601 10.255 270.958 10.4071 271.272C10.4635 271.388 10.5183 271.505 10.5731 271.622C10.6939 271.88 10.8187 272.147 10.9591 272.399C11.1428 272.729 11.3243 273.017 11.5141 273.277L11.6913 273.521C11.8336 273.718 11.9808 273.922 12.1307 274.118L12.2335 274.252L12.23 274.246L12.2457 274.268C12.3652 274.424 12.4889 274.586 12.6239 274.732C12.7902 274.911 12.9295 275.06 13.0809 275.209C13.3891 275.512 13.7145 275.791 14.0202 276.048L14.0631 276.084C14.2256 276.221 14.3937 276.363 14.5672 276.492L14.6765 276.574C14.8086 276.673 14.945 276.776 15.0892 276.858C15.413 277.041 15.7969 277.257 16.1887 277.464C16.4994 277.628 16.8352 277.754 17.1599 277.876C17.262 277.915 17.364 277.953 17.465 277.992C17.6648 278.07 17.8644 278.136 18.0581 278.187C18.2678 278.243 18.4824 278.287 18.714 278.322C19.1569 278.387 19.6078 278.426 20.0541 278.439C20.1991 278.443 20.3441 278.446 20.4891 278.446C20.8032 278.446 21.0643 278.432 21.3109 278.402C21.6456 278.361 21.9841 278.309 22.3114 278.258L22.3675 278.25L22.4046 278.244C22.7003 278.198 23.0062 278.151 23.2976 278.065C23.4405 278.024 23.5816 277.975 23.7227 277.927C23.8353 277.889 23.9481 277.85 24.0618 277.815C24.1921 277.775 24.323 277.736 24.4546 277.699C24.5626 277.669 24.668 277.634 24.7739 277.598L24.8878 277.561C24.9946 277.526 25.0834 277.451 25.1315 277.356C25.2435 277.265 25.3052 277.134 25.3005 276.997L25.2991 276.957C25.2919 276.754 25.2842 276.543 25.2681 276.336C25.2522 276.14 25.2114 275.945 25.1719 275.756L25.1573 275.686C25.0834 275.329 24.9902 274.953 24.8551 274.466C24.719 273.975 24.5301 273.503 24.3633 273.105C24.1935 272.701 23.9847 272.298 23.7428 271.907C23.6323 271.73 23.5152 271.558 23.3946 271.396C23.2821 271.245 23.1603 271.097 23.0423 270.954L22.9302 270.818C22.8792 270.756 22.8289 270.693 22.7783 270.63C22.6906 270.52 22.6027 270.411 22.5122 270.303C22.3859 270.153 22.2488 270.009 22.116 269.869L22.0779 269.829C21.8647 269.605 21.6226 269.406 21.3884 269.214C21.305 269.146 21.2215 269.077 21.1393 269.008C20.9286 268.828 20.7342 268.672 20.5451 268.531C20.4196 268.437 20.2904 268.35 20.1612 268.262C20.1026 268.222 20.044 268.183 19.9858 268.142C19.6163 267.887 19.2345 267.651 18.8509 267.442C18.6418 267.329 18.4528 267.227 18.2555 267.138C18.0475 267.045 17.8157 266.955 17.5469 266.865C17.1247 266.723 16.6966 266.596 16.2748 266.487C16.0537 266.431 15.8479 266.388 15.6457 266.358C15.5727 266.347 15.4999 266.335 15.4271 266.323C15.2599 266.296 15.0872 266.268 14.9159 266.249L14.797 266.236C14.7365 266.23 14.6761 266.223 14.6155 266.216L14.6438 266.223C14.2601 266.175 13.9386 266.151 13.6346 266.147C13.6022 266.146 13.5697 266.146 13.5373 266.146Z" fill="url(#paint3_linear_35_7)"/>
<path d="M36.4343 266.146C36.5593 266.146 36.6959 266.15 36.8517 266.159C37.0201 266.168 37.1892 266.193 37.3527 266.216L37.3853 266.221L37.4794 266.234L37.5796 266.248L37.5438 266.246C37.676 266.261 37.8074 266.281 37.9385 266.301L38.1136 266.327L38.1305 266.329C38.1756 266.335 38.2096 266.34 38.2429 266.345C38.3811 266.363 38.5194 266.377 38.6575 266.392C38.8069 266.407 38.9564 266.423 39.105 266.443L39.13 266.447L39.1557 266.45C39.1762 266.449 39.1978 266.448 39.2185 266.448C39.352 266.448 39.4884 266.48 39.6204 266.511C39.6674 266.522 39.7136 266.533 39.7592 266.542C39.7855 266.548 39.8119 266.553 39.8386 266.558C39.8945 266.568 39.9504 266.579 40.0052 266.594C40.0376 266.604 40.069 266.616 40.1001 266.628H40.1014C40.1437 266.628 40.1786 266.634 40.2091 266.646L40.3435 266.696C40.3723 266.705 40.3993 266.716 40.4251 266.728C40.4972 266.759 40.5542 266.789 40.6044 266.822C40.7139 266.894 40.799 266.982 40.8724 267.102C40.9025 267.15 40.923 267.204 40.9429 267.257C40.9866 267.373 40.9719 267.494 40.9545 267.599C40.9349 267.712 40.8826 267.83 40.8364 267.934C40.8047 268.001 40.7671 268.05 40.7178 268.089C40.6696 268.261 40.6215 268.433 40.5734 268.605L40.4627 269.001C40.4046 269.208 40.3459 269.414 40.2827 269.619C40.2123 269.847 40.1354 270.052 40.0478 270.248C39.8888 270.601 39.7165 270.958 39.5645 271.272C39.5081 271.388 39.4533 271.505 39.3985 271.622C39.2777 271.88 39.1529 272.147 39.0126 272.399C38.8289 272.729 38.6473 273.017 38.4575 273.277L38.2804 273.521C38.138 273.718 37.9908 273.922 37.8409 274.118L37.7382 274.252L37.7416 274.246L37.7259 274.268C37.6065 274.424 37.4827 274.586 37.3477 274.732C37.1814 274.911 37.0421 275.06 36.8907 275.209C36.5825 275.512 36.2572 275.791 35.9514 276.048L35.9085 276.084C35.746 276.221 35.5779 276.363 35.4044 276.492L35.295 276.574C35.163 276.673 35.0266 276.776 34.8824 276.858C34.5586 277.041 34.1748 277.257 33.7829 277.464C33.4722 277.628 33.1364 277.754 32.8117 277.876C32.7096 277.915 32.6076 277.953 32.5066 277.992C32.3068 278.07 32.1072 278.136 31.9135 278.187C31.7038 278.243 31.4892 278.287 31.2576 278.322C30.8147 278.387 30.3637 278.426 29.9176 278.439C29.7725 278.443 29.6275 278.446 29.4824 278.446C29.1684 278.446 28.9074 278.432 28.6607 278.402C28.326 278.361 27.9875 278.309 27.6602 278.258L27.6041 278.25L27.567 278.244C27.2713 278.198 26.9654 278.151 26.674 278.065C26.5312 278.024 26.39 277.975 26.2489 277.927C26.1363 277.889 26.0236 277.85 25.9098 277.815C25.7795 277.775 25.6486 277.736 25.517 277.699C25.409 277.669 25.3035 277.634 25.1977 277.598L25.0838 277.561C24.977 277.526 24.8882 277.451 24.8401 277.356C24.7282 277.265 24.6664 277.134 24.6712 276.997L24.6726 276.957C24.6797 276.754 24.6874 276.543 24.7035 276.336C24.7193 276.14 24.7602 275.945 24.7997 275.756L24.8143 275.686C24.8882 275.329 24.9814 274.953 25.1165 274.466C25.2527 273.975 25.4416 273.503 25.6084 273.105C25.7781 272.701 25.9869 272.298 26.2289 271.907C26.3393 271.73 26.4564 271.558 26.577 271.396C26.6895 271.245 26.8113 271.097 26.9293 270.954L27.0414 270.818C27.0925 270.756 27.1427 270.693 27.1933 270.63C27.281 270.52 27.3689 270.411 27.4594 270.303C27.5856 270.153 27.7228 270.009 27.8557 269.869L27.8937 269.829C28.1069 269.605 28.349 269.406 28.5831 269.214C28.6667 269.146 28.7501 269.077 28.8323 269.008C29.043 268.828 29.2373 268.672 29.4265 268.531C29.552 268.437 29.6812 268.35 29.8104 268.262C29.869 268.222 29.9276 268.183 29.9858 268.142C30.3553 267.887 30.7371 267.651 31.1207 267.442C31.3298 267.329 31.5188 267.227 31.7162 267.138C31.9242 267.045 32.156 266.955 32.4247 266.865C32.847 266.723 33.275 266.596 33.6968 266.487C33.9179 266.431 34.1237 266.388 34.3259 266.358C34.3989 266.347 34.4717 266.335 34.5445 266.323C34.7116 266.296 34.8844 266.268 35.0558 266.249L35.1746 266.236C35.2351 266.23 35.2955 266.223 35.3562 266.216L35.3278 266.223C35.7115 266.175 36.0331 266.151 36.3371 266.147C36.3695 266.146 36.4019 266.146 36.4343 266.146Z" fill="url(#paint4_linear_35_7)"/>
<path d="M28.4726 261.367C28.4101 261.259 28.3385 261.143 28.2534 261.012C28.1613 260.871 28.0553 260.736 27.9531 260.607L27.9326 260.581L27.8745 260.506L27.8126 260.426L27.8316 260.456C27.7526 260.349 27.6699 260.245 27.5873 260.141L27.4772 260.003L27.4665 259.989C27.4388 259.953 27.418 259.926 27.397 259.9C27.3121 259.789 27.2306 259.677 27.1492 259.564C27.0609 259.442 26.9729 259.321 26.8809 259.202L26.8653 259.182L26.8493 259.162C26.8406 259.143 26.8303 259.124 26.82 259.106C26.7533 258.991 26.6574 258.889 26.5645 258.79C26.5315 258.754 26.499 258.72 26.4683 258.685C26.4503 258.665 26.4327 258.645 26.4152 258.624C26.3783 258.581 26.3412 258.538 26.3002 258.498C26.276 258.474 26.2497 258.453 26.2236 258.433L26.223 258.431C26.2018 258.395 26.1792 258.368 26.1538 258.347L26.0431 258.256C26.0213 258.235 25.9983 258.217 25.9742 258.201C25.9114 258.154 25.8571 258.12 25.8035 258.093C25.6869 258.034 25.5675 258.004 25.4274 258C25.3705 257.998 25.3133 258.008 25.2579 258.017C25.1357 258.037 25.0379 258.11 24.9558 258.178C24.8677 258.251 24.7917 258.355 24.7245 258.447C24.682 258.508 24.6582 258.566 24.6493 258.628C24.5249 258.755 24.3995 258.883 24.2743 259.011L23.9867 259.304C23.8367 259.458 23.688 259.612 23.5418 259.769C23.3797 259.944 23.24 260.113 23.1143 260.287C22.8876 260.601 22.665 260.928 22.4687 261.217C22.3964 261.324 22.3223 261.43 22.2482 261.536C22.0854 261.769 21.9168 262.011 21.7684 262.258C21.5738 262.583 21.4157 262.883 21.2852 263.178L21.162 263.453C21.0624 263.675 20.9597 263.904 20.865 264.132L20.8003 264.288L20.8031 264.282L20.7925 264.307C20.7167 264.488 20.6385 264.676 20.5795 264.866C20.5073 265.1 20.448 265.295 20.3949 265.5C20.2864 265.919 20.2068 266.34 20.1371 266.733L20.1272 266.789C20.0896 266.998 20.0508 267.214 20.0261 267.429L20.0098 267.564C19.9893 267.729 19.9683 267.898 19.9695 268.064C19.9726 268.436 19.9779 268.876 19.9942 269.319C20.007 269.671 20.0659 270.024 20.1224 270.366C20.1403 270.474 20.1582 270.581 20.1746 270.689C20.2068 270.901 20.2495 271.106 20.3019 271.3C20.3582 271.51 20.4271 271.717 20.5131 271.935C20.6778 272.352 20.8691 272.762 21.0815 273.154C21.1503 273.282 21.2202 273.409 21.2926 273.535C21.4496 273.807 21.5921 274.026 21.7412 274.225C21.9437 274.494 22.1582 274.761 22.3656 275.02L22.4012 275.064L22.4248 275.093C22.6123 275.326 22.8061 275.568 23.0256 275.778C23.1331 275.88 23.2454 275.978 23.3575 276.077C23.4471 276.155 23.5369 276.233 23.6242 276.314C23.7243 276.407 23.8231 276.501 23.9211 276.597C24.0013 276.675 24.0844 276.749 24.1678 276.823L24.2574 276.903C24.3412 276.978 24.45 277.017 24.5563 277.012C24.6917 277.063 24.8359 277.051 24.9515 276.979L24.9855 276.957C25.1582 276.849 25.337 276.737 25.508 276.62C25.6701 276.508 25.819 276.375 25.9629 276.247L26.0158 276.199C26.2881 275.957 26.5675 275.688 26.922 275.328C27.2788 274.965 27.5938 274.565 27.855 274.222C28.12 273.873 28.3647 273.491 28.5823 273.086C28.6808 272.901 28.7713 272.714 28.8514 272.529C28.9259 272.356 28.993 272.176 29.0575 272.003L29.1196 271.838C29.1482 271.762 29.1776 271.687 29.2069 271.612C29.2579 271.481 29.3088 271.351 29.3569 271.218C29.4237 271.034 29.4802 270.843 29.5349 270.658L29.5507 270.605C29.6381 270.309 29.6892 270 29.7386 269.701C29.7561 269.594 29.7737 269.488 29.7928 269.382C29.8429 269.11 29.8809 268.863 29.9089 268.629C29.9272 268.473 29.9386 268.318 29.9499 268.162C29.955 268.091 29.9602 268.021 29.966 267.95C30.003 267.502 30.0161 267.054 30.0051 266.617C29.999 266.38 29.9925 266.165 29.9711 265.95C29.9481 265.723 29.9098 265.477 29.8539 265.199C29.7661 264.762 29.6622 264.328 29.5452 263.909C29.4839 263.689 29.4176 263.49 29.3427 263.299C29.316 263.23 29.2898 263.162 29.2636 263.093C29.2035 262.934 29.1415 262.771 29.073 262.612L29.0246 262.503C28.9998 262.448 28.9751 262.392 28.9509 262.336L28.9593 262.364C28.8093 262.007 28.6689 261.717 28.5206 261.452C28.505 261.423 28.4888 261.395 28.4726 261.367Z" fill="url(#paint5_linear_35_7)"/>
<path opacity="0.5" d="M267.249 263.078C267.098 262.856 266.938 262.664 266.775 262.507C266.25 261.996 265.507 261.649 264.567 261.477C264.101 261.391 263.706 261.327 263.299 261.293C262.935 261.26 262.563 261.294 262.092 261.401L261.807 261.46C261.575 261.508 261.285 261.568 261.012 261.651C260.895 261.688 260.781 261.73 260.667 261.774C260.61 261.794 260.553 261.815 260.496 261.835L260.348 261.889C260.221 261.933 260.096 261.978 259.972 262.026C259.72 262.126 259.467 262.243 259.199 262.385C259.086 262.445 258.974 262.507 258.864 262.571L258.626 262.707L258.576 262.736C258.358 262.86 258.145 262.981 257.945 263.105C257.741 263.235 257.54 263.387 257.378 263.508L257.331 263.543C257.241 263.613 257.151 263.68 257.06 263.746C256.771 263.96 256.475 264.156 256.224 264.319C255.845 264.57 255.512 264.833 255.235 265.099C255.082 265.245 254.93 265.397 254.713 265.626L254.591 265.751L254.469 265.876C254.341 266.006 254.21 266.134 254.08 266.26C253.955 266.381 253.831 266.502 253.71 266.625C253.6 266.737 253.483 266.859 253.359 266.993C253.474 266.564 253.58 266.133 253.671 265.697C253.828 264.952 254.012 264.211 254.118 263.458C254.229 262.668 254.342 261.881 254.419 261.088C254.497 260.3 254.533 259.512 254.525 258.72C254.517 258.018 254.526 257.301 254.407 256.607C254.353 256.299 254.308 255.99 254.247 255.683C254.167 255.279 254.071 254.88 253.958 254.484C253.867 254.164 253.775 253.844 253.687 253.523C253.596 253.19 253.505 252.86 253.372 252.541C253.232 252.209 253.043 251.901 252.861 251.591C252.701 251.316 252.536 251.05 252.329 250.807C252.101 250.543 251.859 250.288 251.611 250.046C251.426 249.865 251.237 249.678 251.026 249.531C250.532 249.185 250.04 248.824 249.497 248.558C249.238 248.431 248.958 248.327 248.68 248.248C248.277 248.131 247.873 248.043 247.449 248.062C247.354 248.066 247.259 248.076 247.164 248.085C246.997 248.046 246.832 248.016 246.667 248.006C246.419 247.989 246.184 248.01 245.944 248.034C245.766 248.051 245.576 248.073 245.393 248.125C245.056 248.228 244.742 248.358 244.431 248.522C244.333 248.575 244.234 248.631 244.137 248.689C243.72 248.94 243.318 249.241 242.94 249.583C242.586 249.901 242.304 250.299 242.066 250.647C241.801 251.03 241.591 251.427 241.442 251.824C241.299 252.208 241.21 252.63 241.138 252.969C241.04 253.432 240.973 253.865 240.932 254.291C240.86 255.007 240.813 255.79 240.789 256.684C240.779 257 240.782 257.351 240.798 257.757C240.814 258.059 240.843 258.372 240.872 258.666L240.897 258.923L240.904 258.988L240.907 259.023C240.992 259.846 241.122 260.656 241.238 261.35C241.384 262.21 241.567 262.971 241.8 263.676C242.088 264.543 242.373 265.387 242.704 266.182L242.788 266.383L242.852 266.536C242.654 266.32 242.455 266.112 242.25 265.914C242.16 265.825 242.068 265.738 241.976 265.65L241.944 265.621L241.909 265.588L241.84 265.523L241.808 265.493L241.731 265.419C241.64 265.334 241.55 265.248 241.46 265.162C240.93 264.651 240.336 264.138 239.643 263.595C239.335 263.354 239.007 263.123 238.724 262.926C238.597 262.836 238.471 262.745 238.345 262.654C238.138 262.504 237.922 262.349 237.705 262.206C237.514 262.079 237.315 261.966 237.094 261.841L237.046 261.814C236.963 261.768 236.88 261.721 236.799 261.674C236.525 261.513 236.236 261.359 235.916 261.203L235.734 261.113L235.701 261.096C235.379 260.936 235.109 260.804 234.821 260.684L234.643 260.61L234.553 260.572L234.525 260.56C234.322 260.475 234.056 260.362 233.803 260.278C233.393 260.143 232.934 260.046 232.477 259.999C232.06 259.956 231.663 260.013 231.259 260.081C230.593 260.187 229.938 260.409 229.312 260.742C229.231 260.785 229.151 260.83 229.071 260.876C228.891 260.982 228.654 261.125 228.428 261.296C228.151 261.507 227.941 261.761 227.772 261.982C227.492 262.344 227.286 262.729 227.176 263.098C227.052 263.52 226.995 263.895 227 264.243C227.009 264.677 227.058 265.095 227.144 265.483C227.305 266.212 227.609 266.964 228.072 267.783L228.108 267.848L228.128 267.883C228.547 268.624 228.981 269.39 229.496 270.092C229.929 270.682 230.466 271.257 231.136 271.853C231.452 272.132 231.774 272.395 232.094 272.637C232.331 272.842 232.581 273.048 232.839 273.247C233.021 273.389 233.203 273.532 233.385 273.675C233.764 273.972 234.145 274.271 234.526 274.555C234.867 274.808 235.154 275.002 235.432 275.165C235.821 275.396 236.224 275.591 236.567 275.751C237.278 276.083 238.012 276.385 238.645 276.642C239.363 276.933 240.105 277.158 240.852 277.311C241.514 277.445 242.171 277.552 242.955 277.672C243.251 277.717 243.554 277.748 243.846 277.779L243.926 277.787L244.121 277.807L244.25 277.821C244.644 277.861 245.043 277.902 245.439 277.909C245.796 277.916 246.152 277.933 246.508 277.95L246.556 277.952L246.604 277.954C247.005 277.973 247.419 277.993 247.827 277.996L248.061 277.998C248.346 278.001 248.619 278.003 248.888 277.987C249.043 277.978 249.199 277.967 249.354 277.956L249.408 277.952L249.748 277.926C250.436 277.881 251.051 277.834 251.668 277.712L251.942 277.657L252.043 277.637C252.228 277.599 252.414 277.561 252.6 277.528C252.764 277.498 252.928 277.477 253.092 277.456L253.139 277.45C253.257 277.435 253.376 277.421 253.493 277.403C254.165 277.305 254.811 277.174 255.468 277.002L255.557 276.982L255.632 276.963C255.924 276.89 256.226 276.814 256.519 276.725C256.775 276.647 257.03 276.55 257.276 276.457L257.526 276.364C257.847 276.245 258.171 276.134 258.487 276.033C258.569 276.007 258.65 275.98 258.73 275.949L258.781 275.936C258.947 275.894 259.112 275.844 259.277 275.794C259.441 275.743 259.599 275.671 259.752 275.601L259.858 275.555C259.859 275.554 259.847 275.553 259.847 275.552C259.846 275.551 259.832 275.55 259.831 275.55L259.852 275.544C259.922 275.522 259.987 275.491 260.054 275.458L260.196 275.391L260.439 275.277L260.672 275.168L260.827 275.095L260.989 275.02L261.055 274.989L261.176 274.933C261.303 274.872 261.442 274.803 261.578 274.731C262.466 274.259 263.371 273.6 264.344 272.717C264.526 272.556 264.692 272.37 264.852 272.189L264.998 272.023C265.178 271.826 265.355 271.623 265.531 271.421L265.656 271.276C266.197 270.655 266.633 270.052 266.988 269.432C267.357 268.794 267.627 268.069 267.789 267.277C267.874 266.866 267.931 266.491 267.963 266.131C267.992 265.85 268.003 265.627 267.999 265.407C267.996 265.189 267.969 264.948 267.917 264.674C267.884 264.488 267.842 264.317 267.788 264.15C267.733 263.981 267.653 263.816 267.576 263.657L267.51 263.521C267.449 263.391 267.366 263.249 267.249 263.078Z" fill="url(#paint6_linear_35_7)"/>
</g>
<g opacity="0.6">
<path opacity="0.7" d="M388.238 268.043C388.436 270.208 390.305 271.818 392.455 271.716C391.151 273.429 391.417 275.882 393.087 277.273C394.758 278.664 397.218 278.481 398.666 276.888C398.956 279.022 400.878 280.568 403.043 280.371C405.208 280.173 406.817 278.304 406.716 276.154C408.429 277.457 410.881 277.192 412.273 275.522C413.664 273.851 413.48 271.391 411.888 269.942C414.021 269.653 415.568 267.731 415.37 265.566C415.173 263.401 413.304 261.792 411.153 261.893C412.457 260.18 412.192 257.727 410.521 256.336C408.851 254.945 406.391 255.128 404.942 256.721C404.652 254.587 402.731 253.041 400.566 253.238C398.401 253.436 396.791 255.305 396.892 257.455C395.179 256.152 392.727 256.417 391.336 258.088C389.945 259.758 390.128 262.218 391.72 263.667C389.587 263.956 388.041 265.878 388.238 268.043ZM401.367 262.015C404.012 261.774 406.352 263.722 406.594 266.367C406.835 269.013 404.887 271.352 402.241 271.594C399.596 271.835 397.256 269.887 397.015 267.242C396.773 264.597 398.722 262.257 401.367 262.015Z" fill="url(#paint7_linear_35_7)"/>
</g>
<g filter="url(#filter0_di_35_7)">
<path d="M96.665 14L102.61 20.5617L110.441 16.429L113.783 24.6282L122.555 23.423L122.891 32.2709L131.546 34.1386L128.836 42.5679L136.33 47.2831L130.901 54.2772L136.33 61.2712L128.836 65.9864L131.546 74.4158L122.891 76.2834L122.555 85.1313L113.783 83.9261L110.441 92.1253L102.61 87.9927L96.665 94.5543L90.72 87.9927L82.89 92.1253L79.547 83.9261L70.775 85.1313L70.439 76.2834L61.784 74.4158L64.494 65.9864L57 61.2712L62.43 54.2772L57 47.2831L64.494 42.5679L61.784 34.1386L70.439 32.2709L70.775 23.423L79.547 24.6282L82.89 16.429L90.72 20.5617L96.665 14Z" fill="#FF0420"/>
<path fill-rule="evenodd" clip-rule="evenodd" d="M93.332 57.0636C94.02 56.9488 94.6701 57.413 94.7841 58.1002C95.0141 59.4747 96.314 60.4029 97.689 60.1734C99.064 59.944 99.992 58.6437 99.763 57.2692C99.648 56.5819 100.112 55.9318 100.8 55.817C101.487 55.7023 102.137 56.1664 102.252 56.8536C102.711 59.6026 100.854 62.2032 98.1051 62.6622C95.3551 63.1212 92.7541 61.2647 92.2951 58.5157C92.1811 57.8285 92.645 57.1783 93.332 57.0636Z" fill="white"/>
<path d="M83.555 48.3037L84.579 50.0077C85.484 51.5131 86.97 52.5753 88.683 52.9408L90.635 53.3572L88.924 54.3849C87.423 55.2872 86.362 56.7745 85.995 58.4921L85.58 60.4364L84.556 58.7323C83.651 57.2269 82.165 56.1648 80.452 55.7992L78.5 55.3829L80.211 54.3552C81.712 53.4529 82.773 51.9656 83.14 50.248L83.555 48.3037Z" fill="white"/>
<path d="M107.512 44.3044L108.536 46.0085C109.441 47.5139 110.927 48.576 112.641 48.9416L114.592 49.3579L112.882 50.3856C111.38 51.2879 110.319 52.7752 109.953 54.4928L109.538 56.4371L108.514 54.7331C107.609 53.2277 106.123 52.1655 104.409 51.8L102.458 51.3836L104.168 50.3559C105.67 49.4536 106.731 47.9664 107.097 46.2487L107.512 44.3044Z" fill="white"/>
</g>
<path d="M83.9576 104L86.1547 105.825C86.4629 106.081 86.6168 106.209 86.7909 106.292C86.9456 106.365 87.1111 106.412 87.2811 106.43C87.4728 106.451 87.6712 106.422 88.0674 106.365L90.8947 105.957L89.0694 108.155C88.8136 108.463 88.6856 108.617 88.6032 108.791C88.5298 108.945 88.483 109.111 88.4646 109.281C88.444 109.473 88.4725 109.671 88.5298 110.067L88.9376 112.895L86.7404 111.069C86.4322 110.813 86.2783 110.685 86.1038 110.603C85.9496 110.53 85.7837 110.483 85.6137 110.465C85.422 110.444 85.2239 110.472 84.8277 110.53L82 110.937L83.8258 108.74C84.0815 108.432 84.2095 108.278 84.2919 108.104C84.3649 107.949 84.4117 107.784 84.4301 107.614C84.4511 107.422 84.4222 107.224 84.3653 106.827L83.9576 104Z" fill="white"/>
<path d="M67.9576 207L70.1547 208.825C70.4629 209.081 70.6168 209.209 70.7909 209.292C70.9456 209.365 71.1111 209.412 71.2811 209.43C71.4728 209.451 71.6712 209.422 72.0674 209.365L74.8947 208.957L73.0694 211.155C72.8136 211.463 72.6856 211.617 72.6032 211.791C72.5298 211.945 72.483 212.111 72.4646 212.281C72.444 212.473 72.4725 212.671 72.5298 213.067L72.9376 215.895L70.7404 214.069C70.4322 213.813 70.2783 213.685 70.1038 213.603C69.9496 213.53 69.7837 213.483 69.6137 213.465C69.422 213.444 69.2239 213.472 68.8277 213.53L66 213.937L67.8258 211.74C68.0815 211.432 68.2095 211.278 68.2919 211.104C68.3649 210.949 68.4117 210.784 68.4301 210.614C68.4511 210.422 68.4222 210.224 68.3653 209.827L67.9576 207Z" fill="white"/>
<path d="M187.063 190.579L189.26 192.405C189.568 192.66 189.722 192.788 189.896 192.871C190.051 192.944 190.217 192.991 190.387 193.009C190.578 193.03 190.777 193.001 191.173 192.944L194 192.536L192.175 194.734C191.919 195.042 191.791 195.196 191.709 195.37C191.635 195.525 191.588 195.69 191.57 195.86C191.55 196.052 191.578 196.25 191.635 196.646L192.043 199.474L189.846 197.648C189.538 197.392 189.384 197.265 189.209 197.182C189.055 197.109 188.889 197.062 188.719 197.044C188.527 197.023 188.329 197.052 187.933 197.109L185.105 197.517L186.931 195.319C187.187 195.011 187.315 194.857 187.397 194.683C187.47 194.528 187.517 194.363 187.536 194.193C187.557 194.001 187.528 193.803 187.471 193.406L187.063 190.579Z" fill="white"/>
<path d="M38.9576 190L41.1547 191.825C41.4629 192.081 41.6168 192.209 41.7909 192.292C41.9456 192.365 42.1111 192.412 42.2811 192.43C42.4728 192.451 42.6712 192.422 43.0674 192.365L45.8947 191.957L44.0694 194.155C43.8136 194.463 43.6856 194.617 43.6032 194.791C43.5298 194.945 43.483 195.111 43.4646 195.281C43.444 195.473 43.4725 195.671 43.5298 196.067L43.9376 198.895L41.7404 197.069C41.4322 196.813 41.2783 196.685 41.1038 196.603C40.9496 196.53 40.7837 196.483 40.6137 196.465C40.422 196.444 40.2239 196.472 39.8277 196.53L37 196.937L38.8258 194.74C39.0815 194.432 39.2095 194.278 39.2919 194.104C39.3649 193.949 39.4117 193.784 39.4301 193.614C39.4511 193.422 39.4222 193.224 39.3653 192.827L38.9576 190Z" fill="white"/>
<path d="M196.958 159L199.155 160.825C199.463 161.081 199.617 161.209 199.791 161.292C199.946 161.365 200.111 161.412 200.281 161.43C200.473 161.451 200.671 161.422 201.067 161.365L203.895 160.957L202.069 163.155C201.814 163.463 201.686 163.617 201.603 163.791C201.53 163.945 201.483 164.111 201.465 164.281C201.444 164.473 201.473 164.671 201.53 165.067L201.938 167.895L199.74 166.069C199.432 165.813 199.278 165.685 199.104 165.603C198.95 165.53 198.784 165.483 198.614 165.465C198.422 165.444 198.224 165.472 197.828 165.53L195 165.937L196.826 163.74C197.081 163.432 197.21 163.278 197.292 163.104C197.365 162.949 197.412 162.784 197.43 162.614C197.451 162.422 197.422 162.224 197.365 161.827L196.958 159Z" fill="white"/>
<path d="M191.852 211.105L194.05 212.931C194.358 213.187 194.512 213.315 194.686 213.397C194.84 213.47 195.006 213.517 195.176 213.535C195.368 213.556 195.566 213.527 195.962 213.47L198.79 213.063L196.964 215.26C196.708 215.568 196.58 215.722 196.498 215.896C196.425 216.051 196.378 216.216 196.359 216.386C196.339 216.578 196.367 216.776 196.425 217.173L196.832 220L194.635 218.175C194.327 217.919 194.173 217.791 193.999 217.708C193.844 217.635 193.678 217.588 193.508 217.57C193.317 217.549 193.119 217.578 192.723 217.635L189.895 218.043L191.721 215.845C191.976 215.537 192.104 215.383 192.187 215.209C192.26 215.055 192.307 214.889 192.325 214.719C192.346 214.527 192.317 214.329 192.26 213.933L191.852 211.105Z" fill="white"/>
<path d="M39.9576 168L42.1547 169.825C42.4629 170.081 42.6168 170.209 42.7909 170.292C42.9456 170.365 43.1111 170.412 43.2811 170.43C43.4728 170.451 43.6712 170.422 44.0674 170.365L46.8947 169.957L45.0694 172.155C44.8136 172.463 44.6856 172.617 44.6032 172.791C44.5298 172.945 44.483 173.111 44.4646 173.281C44.444 173.473 44.4725 173.671 44.5298 174.067L44.9376 176.895L42.7404 175.069C42.4322 174.813 42.2783 174.685 42.1038 174.603C41.9496 174.53 41.7837 174.483 41.6137 174.465C41.422 174.444 41.2239 174.472 40.8277 174.53L38 174.937L39.8258 172.74C40.0815 172.432 40.2095 172.278 40.2919 172.104C40.3649 171.949 40.4117 171.784 40.4301 171.614C40.4511 171.422 40.4222 171.224 40.3653 170.827L39.9576 168Z" fill="white"/>
<path d="M128.958 187L131.155 188.825C131.463 189.081 131.617 189.209 131.791 189.292C131.946 189.365 132.111 189.412 132.281 189.43C132.473 189.451 132.671 189.422 133.067 189.365L135.895 188.957L134.069 191.155C133.814 191.463 133.686 191.617 133.603 191.791C133.53 191.945 133.483 192.111 133.465 192.281C133.444 192.473 133.473 192.671 133.53 193.067L133.938 195.895L131.74 194.069C131.432 193.813 131.278 193.685 131.104 193.603C130.95 193.53 130.784 193.483 130.614 193.465C130.422 193.444 130.224 193.472 129.828 193.53L127 193.937L128.826 191.74C129.081 191.432 129.21 191.278 129.292 191.104C129.365 190.949 129.412 190.784 129.43 190.614C129.451 190.422 129.422 190.224 129.365 189.827L128.958 187Z" fill="white"/>
<path d="M235.642 186.474L237.839 188.299C238.147 188.555 238.301 188.683 238.475 188.766C238.63 188.839 238.795 188.885 238.965 188.904C239.157 188.925 239.355 188.896 239.751 188.839L242.579 188.431L240.753 190.628C240.498 190.936 240.37 191.09 240.287 191.265C240.214 191.419 240.167 191.585 240.149 191.755C240.128 191.946 240.157 192.145 240.214 192.541L240.622 195.368L238.424 193.543C238.116 193.287 237.962 193.159 237.788 193.077C237.634 193.003 237.468 192.957 237.298 192.938C237.106 192.918 236.908 192.946 236.512 193.003L233.684 193.411L235.51 191.214C235.766 190.906 235.894 190.752 235.976 190.577C236.049 190.423 236.096 190.257 236.114 190.087C236.135 189.896 236.106 189.697 236.049 189.301L235.642 186.474Z" fill="white"/>
<path d="M141.958 134L144.155 135.825C144.463 136.081 144.617 136.209 144.791 136.292C144.946 136.365 145.111 136.412 145.281 136.43C145.473 136.451 145.671 136.422 146.067 136.365L148.895 135.957L147.069 138.155C146.814 138.463 146.686 138.617 146.603 138.791C146.53 138.945 146.483 139.111 146.465 139.281C146.444 139.473 146.473 139.671 146.53 140.067L146.938 142.895L144.74 141.069C144.432 140.813 144.278 140.685 144.104 140.603C143.95 140.53 143.784 140.483 143.614 140.465C143.422 140.444 143.224 140.472 142.828 140.53L140 140.937L141.826 138.74C142.081 138.432 142.21 138.278 142.292 138.104C142.365 137.949 142.412 137.784 142.43 137.614C142.451 137.422 142.422 137.224 142.365 136.827L141.958 134Z" fill="white"/>
<path d="M289.01 186.474L291.207 188.299C291.516 188.555 291.67 188.683 291.844 188.766C291.998 188.839 292.164 188.885 292.334 188.904C292.525 188.925 292.724 188.896 293.12 188.839L295.947 188.431L294.122 190.628C293.866 190.936 293.738 191.09 293.656 191.265C293.583 191.419 293.536 191.585 293.517 191.755C293.497 191.946 293.525 192.145 293.583 192.541L293.99 195.368L291.793 193.543C291.485 193.287 291.331 193.159 291.157 193.077C291.002 193.003 290.836 192.957 290.666 192.938C290.475 192.918 290.277 192.946 289.88 193.003L287.053 193.411L288.878 191.214C289.134 190.906 289.262 190.752 289.345 190.577C289.418 190.423 289.464 190.257 289.483 190.087C289.504 189.896 289.475 189.697 289.418 189.301L289.01 186.474Z" fill="white"/>
<path d="M337.958 224L340.155 225.825C340.463 226.081 340.617 226.209 340.791 226.292C340.946 226.365 341.111 226.412 341.281 226.43C341.473 226.451 341.671 226.422 342.067 226.365L344.895 225.957L343.069 228.155C342.814 228.463 342.686 228.617 342.603 228.791C342.53 228.945 342.483 229.111 342.465 229.281C342.444 229.473 342.473 229.671 342.53 230.067L342.938 232.895L340.74 231.069C340.432 230.813 340.278 230.685 340.104 230.603C339.95 230.53 339.784 230.483 339.614 230.465C339.422 230.444 339.224 230.472 338.828 230.53L336 230.937L337.826 228.74C338.081 228.432 338.21 228.278 338.292 228.104C338.365 227.949 338.412 227.784 338.43 227.614C338.451 227.422 338.422 227.224 338.365 226.827L337.958 224Z" fill="white"/>
<path d="M328.958 199L331.155 200.825C331.463 201.081 331.617 201.209 331.791 201.292C331.946 201.365 332.111 201.412 332.281 201.43C332.473 201.451 332.671 201.422 333.067 201.365L335.895 200.957L334.069 203.155C333.814 203.463 333.686 203.617 333.603 203.791C333.53 203.945 333.483 204.111 333.465 204.281C333.444 204.473 333.473 204.671 333.53 205.067L333.938 207.895L331.74 206.069C331.432 205.813 331.278 205.685 331.104 205.603C330.95 205.53 330.784 205.483 330.614 205.465C330.422 205.444 330.224 205.472 329.828 205.53L327 205.937L328.826 203.74C329.081 203.432 329.21 203.278 329.292 203.104C329.365 202.949 329.412 202.784 329.43 202.614C329.451 202.422 329.422 202.224 329.365 201.827L328.958 199Z" fill="white"/>
<path d="M369.063 186.474L371.26 188.299C371.568 188.555 371.722 188.683 371.896 188.765C372.051 188.839 372.217 188.885 372.387 188.904C372.578 188.924 372.777 188.896 373.173 188.839L376 188.431L374.175 190.628C373.919 190.936 373.791 191.09 373.709 191.265C373.635 191.419 373.588 191.585 373.57 191.755C373.55 191.946 373.578 192.145 373.635 192.541L374.043 195.368L371.846 193.543C371.538 193.287 371.384 193.159 371.209 193.076C371.055 193.003 370.889 192.957 370.719 192.938C370.527 192.918 370.329 192.946 369.933 193.003L367.105 193.411L368.931 191.214C369.187 190.906 369.315 190.752 369.397 190.577C369.47 190.423 369.517 190.257 369.536 190.087C369.557 189.896 369.528 189.697 369.471 189.301L369.063 186.474Z" fill="white"/>
<path d="M396.958 238L399.155 239.825C399.463 240.081 399.617 240.209 399.791 240.292C399.946 240.365 400.111 240.412 400.281 240.43C400.473 240.451 400.671 240.422 401.067 240.365L403.895 239.957L402.069 242.155C401.814 242.463 401.686 242.617 401.603 242.791C401.53 242.945 401.483 243.111 401.465 243.281C401.444 243.473 401.473 243.671 401.53 244.067L401.938 246.895L399.74 245.069C399.432 244.813 399.278 244.685 399.104 244.603C398.95 244.53 398.784 244.483 398.614 244.465C398.422 244.444 398.224 244.472 397.828 244.53L395 244.937L396.826 242.74C397.081 242.432 397.21 242.278 397.292 242.104C397.365 241.949 397.412 241.784 397.43 241.614C397.451 241.422 397.422 241.224 397.365 240.827L396.958 238Z" fill="white"/>
<g opacity="0.6">
<path d="M88.1728 259.606C90.9974 260.042 93.645 258.171 94.1994 255.395C95.9701 257.603 99.1823 258.045 101.488 256.356C103.794 254.668 104.343 251.472 102.772 249.118C105.585 249.427 108.169 247.468 108.606 244.643C109.042 241.819 107.17 239.171 104.395 238.617C106.603 236.846 107.045 233.634 105.356 231.328C103.668 229.022 100.472 228.473 98.1173 230.044C98.4265 227.231 96.4674 224.647 93.6429 224.21C90.8183 223.774 88.171 225.646 87.6165 228.421C85.8457 226.213 82.6334 225.771 80.3276 227.46C78.0218 229.148 77.4731 232.344 79.0436 234.699C76.2302 234.389 73.6462 236.349 73.2098 239.173C72.7732 241.998 74.6452 244.645 77.4204 245.2C75.2128 246.97 74.7711 250.183 76.4596 252.488C78.1482 254.794 81.3438 255.343 83.6986 253.772C83.3892 256.586 85.3482 259.169 88.1728 259.606ZM84.6598 240.942C85.1931 237.492 88.4226 235.127 91.8734 235.66C95.3242 236.193 97.6891 239.423 97.1558 242.874C96.6225 246.324 93.3929 248.69 89.9422 248.156C86.4914 247.623 84.1265 244.393 84.6598 240.942Z" fill="url(#paint8_linear_35_7)"/>
</g>
<g opacity="0.6">
<path opacity="0.4" d="M330.959 269.471C332.07 269.643 333.111 268.907 333.329 267.815C334.025 268.684 335.288 268.857 336.195 268.193C337.101 267.53 337.317 266.273 336.7 265.347C337.806 265.469 338.822 264.698 338.993 263.588C339.165 262.477 338.429 261.436 337.338 261.218C338.206 260.522 338.38 259.259 337.716 258.352C337.052 257.445 335.795 257.23 334.869 257.847C334.991 256.741 334.221 255.725 333.11 255.553C331.999 255.382 330.958 256.118 330.74 257.209C330.044 256.341 328.781 256.167 327.874 256.831C326.968 257.495 326.752 258.752 327.369 259.678C326.263 259.556 325.247 260.326 325.076 261.437C324.904 262.547 325.64 263.589 326.731 263.807C325.863 264.503 325.689 265.766 326.353 266.672C327.017 267.579 328.274 267.795 329.2 267.177C329.078 268.284 329.848 269.299 330.959 269.471ZM329.578 262.133C329.787 260.776 331.057 259.846 332.414 260.055C333.771 260.265 334.701 261.535 334.491 262.892C334.282 264.249 333.012 265.179 331.655 264.969C330.298 264.759 329.368 263.489 329.578 262.133Z" fill="url(#paint9_linear_35_7)"/>
</g>
<g opacity="0.4">
<path opacity="0.8" d="M319.688 228.536C319.296 228.283 318.881 228.095 318.456 227.967C318.907 227.633 319.307 227.214 319.63 226.714C321.076 224.479 318.201 220.049 318.201 220.049C318.201 220.049 312.982 219.244 311.536 221.479C311.283 221.87 311.095 222.285 310.967 222.71C310.633 222.259 310.213 221.859 309.714 221.536C307.479 220.091 303.049 222.966 303.049 222.966C303.049 222.966 302.244 228.185 304.479 229.63C304.87 229.883 305.285 230.071 305.711 230.199C305.259 230.534 304.859 230.953 304.536 231.452C303.091 233.687 305.966 238.117 305.966 238.117C305.966 238.117 311.185 238.923 312.63 236.688C312.884 236.296 313.072 235.881 313.199 235.456C313.534 235.907 313.953 236.307 314.453 236.63C316.688 238.076 321.117 235.201 321.117 235.201C321.117 235.201 321.923 229.982 319.688 228.536ZM312.454 231.197C312.119 230.746 311.7 230.346 311.201 230.023C310.81 229.77 310.395 229.582 309.969 229.454C310.42 229.12 310.82 228.7 311.143 228.201C311.397 227.809 311.585 227.394 311.713 226.969C312.047 227.42 312.466 227.82 312.966 228.143C313.357 228.397 313.772 228.585 314.197 228.712C313.746 229.047 313.346 229.466 313.023 229.966C312.77 230.357 312.582 230.772 312.454 231.197Z" fill="url(#paint10_linear_35_7)"/>
<path d="M66.9788 183.515C67.1088 183.963 67.2992 184.377 67.5369 184.752C66.9768 184.709 66.4 184.764 65.8289 184.93C63.2724 185.672 62.5436 190.902 62.5436 190.902C62.5436 190.902 65.9593 194.93 68.5158 194.188C68.9637 194.058 69.3775 193.867 69.7526 193.63C69.71 194.189 69.7647 194.766 69.9305 195.338C70.6724 197.894 75.9026 198.623 75.9026 198.623C75.9026 198.623 79.9299 195.207 79.188 192.651C79.058 192.203 78.8676 191.789 78.6299 191.414C79.19 191.456 79.7668 191.402 80.3379 191.236C82.8943 190.494 83.6232 185.264 83.6232 185.264C83.6232 185.264 80.2074 181.236 77.651 181.978C77.2031 182.108 76.7893 182.299 76.4142 182.536C76.4567 181.977 76.402 181.4 76.2363 180.828C75.4943 178.272 70.2642 177.543 70.2642 177.543C70.2642 177.543 66.2368 180.959 66.9788 183.515ZM74.188 186.243C74.1454 186.803 74.1999 187.379 74.3657 187.95C74.4956 188.398 74.6861 188.812 74.9237 189.188C74.3637 189.145 73.7868 189.2 73.2157 189.365C72.7679 189.495 72.354 189.686 71.9788 189.923C72.0214 189.363 71.9669 188.786 71.8011 188.215C71.6712 187.767 71.4806 187.353 71.2431 186.979C71.803 187.021 72.3798 186.966 72.951 186.8C73.3988 186.67 73.8128 186.48 74.188 186.243Z" fill="url(#paint11_linear_35_7)"/>
</g>
<g opacity="0.4">
<path opacity="0.7" d="M161 227.867C161 225.989 158.451 224.422 156.372 224.055C157.035 222.432 157.192 220.514 156.185 219.507C154.856 218.179 151.946 218.873 150.216 220.083C149.538 218.467 148.292 217 146.867 217C144.989 217 143.422 219.549 143.055 221.628C141.432 220.966 139.514 220.809 138.506 221.816C137.179 223.144 137.873 226.054 139.083 227.784C137.467 228.463 136 229.708 136 231.133C136 233.011 138.549 234.578 140.628 234.945C139.966 236.568 139.808 238.486 140.815 239.493C142.144 240.821 145.054 240.127 146.784 238.917C147.139 239.763 147.65 240.568 148.261 241.144C148.294 241.174 148.327 241.205 148.36 241.235C148.372 241.245 148.385 241.256 148.398 241.267C148.413 241.28 148.429 241.294 148.445 241.307C148.445 241.308 148.446 241.308 148.446 241.309C148.956 241.736 149.528 242 150.133 242C150.539 242 150.93 241.881 151.298 241.673C151.349 241.644 151.399 241.613 151.45 241.581C151.457 241.577 151.465 241.572 151.472 241.567C151.765 241.376 152.042 241.128 152.298 240.842C152.302 240.838 152.306 240.833 152.31 240.829C152.315 240.823 152.32 240.817 152.325 240.811C153.143 239.88 153.737 238.551 153.946 237.372C155.568 238.035 157.486 238.192 158.494 237.184C159.821 235.856 159.127 232.946 157.917 231.216C159.533 230.538 161 229.292 161 227.867ZM148.503 233.188C146.452 233.188 144.789 231.526 144.789 229.475C144.789 227.424 146.452 225.761 148.503 225.761C150.554 225.761 152.217 227.424 152.217 229.475C152.217 231.526 150.554 233.188 148.503 233.188Z" fill="url(#paint12_linear_35_7)"/>
</g>
<g opacity="0.6">
<path opacity="0.6" d="M207.862 252.448C206.747 251.804 204.868 251.195 202.901 250.867C204.399 250.524 205.753 250.038 206.633 249.53C209.457 247.899 210.425 244.287 208.794 241.462C207.163 238.637 203.551 237.669 200.726 239.3C199.611 239.944 198.144 241.267 196.877 242.806C197.329 241.337 197.585 239.921 197.585 238.906C197.585 235.644 194.94 233 191.679 233C188.417 233 185.773 235.644 185.773 238.906C185.773 240.194 186.185 242.125 186.884 243.992C185.838 242.867 184.74 241.937 183.86 241.429C181.035 239.799 177.423 240.767 175.792 243.591C174.161 246.416 175.129 250.028 177.954 251.66C179.069 252.303 180.948 252.912 182.915 253.24C181.417 253.583 180.063 254.069 179.183 254.577C176.359 256.208 175.391 259.82 177.022 262.645C178.653 265.47 182.265 266.438 185.09 264.807C186.205 264.163 187.672 262.84 188.939 261.301C188.487 262.77 188.231 264.186 188.231 265.201C188.231 268.463 190.875 271.107 194.137 271.107C197.399 271.107 200.044 268.463 200.044 265.201C200.044 263.913 199.631 261.982 198.932 260.115C199.978 261.24 201.076 262.17 201.956 262.678C204.78 264.309 208.393 263.341 210.023 260.516C211.654 257.691 210.687 254.079 207.862 252.448ZM192.908 256.6C190.397 256.6 188.361 254.565 188.361 252.054C188.361 249.543 190.397 247.507 192.908 247.507C195.419 247.507 197.455 249.543 197.455 252.054C197.455 254.565 195.419 256.6 192.908 256.6Z" fill="url(#paint13_linear_35_7)"/>
<path opacity="0.4" d="M219.976 219.73C220.85 219.544 222.108 218.986 223.285 218.245C222.657 219.113 222.168 219.987 221.938 220.653C221.197 222.793 222.323 225.087 224.453 225.777C226.582 226.467 228.909 225.292 229.649 223.153C229.941 222.308 230.111 220.954 230.078 219.581C230.506 220.541 231.011 221.383 231.47 221.902C232.944 223.569 235.522 223.699 237.228 222.191C238.934 220.683 239.122 218.109 237.648 216.441C237.066 215.783 235.978 214.986 234.768 214.355C235.824 214.447 236.818 214.414 237.508 214.268C239.722 213.795 241.174 211.631 240.751 209.433C240.327 207.235 238.189 205.835 235.974 206.307C235.1 206.494 233.842 207.051 232.666 207.793C233.294 206.925 233.783 206.05 234.013 205.384C234.753 203.245 233.628 200.951 231.498 200.26C229.369 199.57 227.042 200.745 226.302 202.885C226.009 203.73 225.84 205.084 225.873 206.456C225.445 205.497 224.939 204.655 224.48 204.136C223.007 202.468 220.429 202.339 218.723 203.847C217.017 205.355 216.829 207.929 218.303 209.596C218.884 210.254 219.973 211.051 221.183 211.682C220.127 211.591 219.132 211.623 218.443 211.77C216.229 212.242 214.777 214.407 215.2 216.605C215.624 218.803 217.762 220.202 219.976 219.73ZM225.921 210.695C227.234 209.534 229.219 209.633 230.353 210.917C231.488 212.201 231.343 214.182 230.03 215.343C228.717 216.504 226.732 216.404 225.597 215.121C224.463 213.837 224.608 211.855 225.921 210.695Z" fill="url(#paint14_linear_35_7)"/>
<path opacity="0.7" d="M381.515 242.697C380.955 242.375 380.011 242.072 379.022 241.909C379.775 241.737 380.456 241.495 380.898 241.242C382.317 240.429 382.804 238.628 381.984 237.219C381.164 235.811 379.349 235.328 377.929 236.141C377.369 236.462 376.632 237.122 375.995 237.889C376.222 237.157 376.35 236.451 376.35 235.945C376.35 234.318 375.022 233 373.382 233C371.743 233 370.414 234.318 370.414 235.945C370.414 236.587 370.621 237.55 370.973 238.481C370.447 237.92 369.895 237.456 369.453 237.203C368.033 236.39 366.218 236.872 365.398 238.281C364.578 239.689 365.065 241.49 366.485 242.303C367.045 242.624 367.989 242.928 368.978 243.091C368.225 243.263 367.544 243.505 367.102 243.758C365.683 244.571 365.196 246.372 366.016 247.781C366.836 249.189 368.651 249.672 370.071 248.859C370.631 248.538 371.368 247.878 372.005 247.111C371.778 247.843 371.65 248.549 371.65 249.055C371.65 250.682 372.978 252 374.618 252C376.257 252 377.586 250.682 377.586 249.055C377.586 248.413 377.379 247.45 377.027 246.519C377.553 247.08 378.105 247.544 378.547 247.797C379.967 248.61 381.782 248.128 382.602 246.719C383.422 245.311 382.935 243.51 381.515 242.697ZM374 244.767C372.738 244.767 371.715 243.752 371.715 242.5C371.715 241.248 372.738 240.233 374 240.233C375.262 240.233 376.285 241.248 376.285 242.5C376.285 243.752 375.262 244.767 374 244.767Z" fill="url(#paint15_linear_35_7)"/>
</g>
</g>
<defs>
<filter id="filter0_di_35_7" x="46.4266" y="6.9511" width="100.477" height="101.701" filterUnits="userSpaceOnUse" color-interpolation-filters="sRGB">
<feFlood flood-opacity="0" result="BackgroundImageFix"/>
<feColorMatrix in="SourceAlpha" type="matrix" values="0 0 0 0 0 0 0 0 0 0 0 0 0 0 0 0 0 0 127 0" result="hardAlpha"/>
<feOffset dy="3.52446"/>
<feGaussianBlur stdDeviation="5.28668"/>
<feComposite in2="hardAlpha" operator="out"/>
<feColorMatrix type="matrix" values="0 0 0 0 0 0 0 0 0 0 0 0 0 0 0 0 0 0 0.02 0"/>
<feBlend mode="normal" in2="BackgroundImageFix" result="effect1_dropShadow_35_7"/>
<feBlend mode="normal" in="SourceGraphic" in2="effect1_dropShadow_35_7" result="shape"/>
<feColorMatrix in="SourceAlpha" type="matrix" values="0 0 0 0 0 0 0 0 0 0 0 0 0 0 0 0 0 0 127 0" result="hardAlpha"/>
<feOffset dy="1.76223"/>
<feGaussianBlur stdDeviation="0.881114"/>
<feComposite in2="hardAlpha" operator="arithmetic" k2="-1" k3="1"/>
<feColorMatrix type="matrix" values="0 0 0 0 0 0 0 0 0 0 0 0 0 0 0 0 0 0 0.03 0"/>
<feBlend mode="normal" in2="shape" result="effect2_innerShadow_35_7"/>
</filter>
<linearGradient id="paint0_linear_35_7" x1="789.604" y1="43.3982" x2="-584.714" y2="43.3982" gradientUnits="userSpaceOnUse">
<stop stop-color="#6AFFFF"/>
<stop offset="1" stop-color="#00CFFC"/>
</linearGradient>
<linearGradient id="paint1_linear_35_7" x1="-277.165" y1="154.288" x2="421.368" y2="154.288" gradientUnits="userSpaceOnUse">
<stop stop-color="#6AFFFF"/>
<stop offset="1" stop-color="#FBA6FF"/>
</linearGradient>
<linearGradient id="paint2_linear_35_7" x1="-439.812" y1="-38.2328" x2="-113.808" y2="539.507" gradientUnits="userSpaceOnUse">
<stop stop-color="#9062F8"/>
<stop offset="1" stop-color="#6AFFFF"/>
</linearGradient>
<linearGradient id="paint3_linear_35_7" x1="17.1504" y1="266.146" x2="17.1504" y2="278.446" gradientUnits="userSpaceOnUse">
<stop stop-color="#48FF5B"/>
<stop offset="1" stop-color="#6AFFFF"/>
</linearGradient>
<linearGradient id="paint4_linear_35_7" x1="32.8213" y1="266.146" x2="32.8213" y2="278.446" gradientUnits="userSpaceOnUse">
<stop stop-color="#48FF5B"/>
<stop offset="1" stop-color="#6AFFFF"/>
</linearGradient>
<linearGradient id="paint5_linear_35_7" x1="24.9892" y1="258" x2="24.9892" y2="277.043" gradientUnits="userSpaceOnUse">
<stop stop-color="#48FF5B"/>
<stop offset="1" stop-color="#6AFFFF"/>
</linearGradient>
<linearGradient id="paint6_linear_35_7" x1="268" y1="263" x2="227" y2="263" gradientUnits="userSpaceOnUse">
<stop offset="0.245" stop-color="#6AFFFF"/>
<stop offset="1" stop-color="#4991E5"/>
</linearGradient>
<linearGradient id="paint7_linear_35_7" x1="415.37" y1="265.566" x2="388.238" y2="268.043" gradientUnits="userSpaceOnUse">
<stop stop-color="#6AFFFF"/>
<stop offset="1" stop-color="#4CFF53"/>
</linearGradient>
<linearGradient id="paint8_linear_35_7" x1="93.6428" y1="224.21" x2="88.1727" y2="259.606" gradientUnits="userSpaceOnUse">
<stop stop-color="#6AFFFF"/>
<stop offset="1" stop-color="#BAB1FB"/>
</linearGradient>
<linearGradient id="paint9_linear_35_7" x1="333.11" y1="255.553" x2="330.959" y2="269.471" gradientUnits="userSpaceOnUse">
<stop stop-color="#6AFFFF"/>
<stop offset="1" stop-color="#BAB1FB"/>
</linearGradient>
<linearGradient id="paint10_linear_35_7" x1="321.242" y1="235.008" x2="302.924" y2="223.159" gradientUnits="userSpaceOnUse">
<stop offset="0.06" stop-color="#6AFFFF"/>
<stop offset="0.74" stop-color="#6AFFC6"/>
</linearGradient>
<linearGradient id="paint11_linear_35_7" x1="70.043" y1="177.607" x2="76.1239" y2="198.559" gradientUnits="userSpaceOnUse">
<stop offset="0.125" stop-color="#FBA6FF"/>
<stop offset="0.825" stop-color="#6AFFFF"/>
</linearGradient>
<linearGradient id="paint12_linear_35_7" x1="157.339" y1="220.661" x2="139.661" y2="238.339" gradientUnits="userSpaceOnUse">
<stop stop-color="#00ABEC"/>
<stop offset="0.9998" stop-color="#18FF50"/>
</linearGradient>
<linearGradient id="paint13_linear_35_7" x1="175" y1="252.054" x2="210.816" y2="252.054" gradientUnits="userSpaceOnUse">
<stop stop-color="#FA8FFF"/>
<stop offset="1" stop-color="#98D6DD"/>
</linearGradient>
<linearGradient id="paint14_linear_35_7" x1="237.341" y1="204.74" x2="218.61" y2="221.297" gradientUnits="userSpaceOnUse">
<stop stop-color="#FBA6FF"/>
<stop offset="1" stop-color="#6AFFFF"/>
</linearGradient>
<linearGradient id="paint15_linear_35_7" x1="365" y1="242.5" x2="383" y2="242.5" gradientUnits="userSpaceOnUse">
<stop stop-color="#6AFFFF"/>
<stop offset="1" stop-color="#98D6DD"/>
</linearGradient>
<clipPath id="clip0_35_7">
<rect width="532" height="276" fill="white"/>
</clipPath>
<clipPath id="clip1_35_7">
<rect width="471" height="244" fill="white" transform="translate(0 32)"/>
</clipPath>
</defs>
</svg>
